<?xml version="1.0" encoding="iso-8859-1"?>
<!-- Generator: Adobe Illustrator 18.1.1, SVG Export Plug-In . SVG Version: 6.00 Build 0)  -->
<svg version="1.1" id="Capa_1" xmlns="http://www.w3.org/2000/svg" xmlns:xlink="http://www.w3.org/1999/xlink" x="0px" y="0px"
	 viewBox="0 0 121.8 121.8" style="enable-background:new 0 0 121.8 121.8;" xml:space="preserve">
<g>
	<g>
		<path style="fill:#010002;" d="M121.731,21.763c-6.002,3.375-13.75,19.623-17,18.123c-3.25-1.5-5-29.622-7.873-32.267
			c-4.874,4.642-5.501,30.642-9.624,32.267c-4.126,1.625-12.125-16.874-15.5-17.25C69.86,30.388,84.859,78.388,95.86,78.388
			S122.98,29.014,121.731,21.763z"/>
		<path style="fill:#010002;" d="M34.565,75.679c-4.123-1.625-4.749-27.625-9.624-32.267c-2.874,2.641-4.624,30.767-7.873,32.267
			c-3.25,1.5-10.998-14.748-17-18.123c-1.249,7.247,14.874,56.625,25.875,56.625s26-48,24.125-55.751
			C46.69,58.805,38.688,77.304,34.565,75.679z"/>
	</g>
</g>
<g>
</g>
<g>
</g>
<g>
</g>
<g>
</g>
<g>
</g>
<g>
</g>
<g>
</g>
<g>
</g>
<g>
</g>
<g>
</g>
<g>
</g>
<g>
</g>
<g>
</g>
<g>
</g>
<g>
</g>
</svg>
